<?xml version="1.0" encoding="UTF-8" standalone="no"?>
<!-- Created with Inkscape (http://www.inkscape.org/) -->

<svg
   xmlns:osb="http://www.openswatchbook.org/uri/2009/osb"
   xmlns:dc="http://purl.org/dc/elements/1.1/"
   xmlns:cc="http://creativecommons.org/ns#"
   xmlns:rdf="http://www.w3.org/1999/02/22-rdf-syntax-ns#"
   xmlns:svg="http://www.w3.org/2000/svg"
   xmlns="http://www.w3.org/2000/svg"
   xmlns:sodipodi="http://sodipodi.sourceforge.net/DTD/sodipodi-0.dtd"
   xmlns:inkscape="http://www.inkscape.org/namespaces/inkscape"
   width="744.09448"
   height="1052.3622"
   id="svg3340"
   version="1.1"
   inkscape:version="0.91pre2 r13516"
   viewBox="0 0 744.09448 1052.3622"
   sodipodi:docname="svg.svg">
  <defs
     id="defs3342">
    <linearGradient
       id="linearGradient4958"
       osb:paint="solid">
      <stop
         style="stop-color:#ffffff;stop-opacity:1;"
         offset="0"
         id="stop4960" />
    </linearGradient>
    <pattern
       y="0"
       x="0"
       height="6"
       width="6"
       patternUnits="userSpaceOnUse"
       id="EMFhbasepattern" />
  </defs>
  <sodipodi:namedview
     id="base"
     pagecolor="#ffffff"
     bordercolor="#666666"
     borderopacity="1.0"
     inkscape:pageopacity="0.0"
     inkscape:pageshadow="2"
     inkscape:zoom="1.4"
     inkscape:cx="94.002931"
     inkscape:cy="650.25781"
     inkscape:document-units="px"
     inkscape:current-layer="layer1"
     showgrid="false"
     inkscape:window-width="1920"
     inkscape:window-height="1018"
     inkscape:window-x="-8"
     inkscape:window-y="-8"
     inkscape:window-maximized="1" />
  <metadata
     id="metadata3345">
    <rdf:RDF>
      <cc:Work
         rdf:about="">
        <dc:format>image/svg+xml</dc:format>
        <dc:type
           rdf:resource="http://purl.org/dc/dcmitype/StillImage" />
        <dc:title></dc:title>
      </cc:Work>
    </rdf:RDF>
  </metadata>
  <g
     inkscape:label="Layer 1"
     inkscape:groupmode="layer"
     id="layer1">
    <path
       style="fill:#000000;fill-rule:evenodd;stroke:none;stroke-width:10;stroke-linecap:butt;stroke-linejoin:miter;stroke-miterlimit:4;stroke-dasharray:none;stroke-opacity:1"
       d="M 315.74219 143.62695 C 313.86674 143.60405 311.98341 143.63579 310.0957 143.72656 C 262.15069 145.24405 221.2649 183.78437 217.86328 231.99609 C 217.60836 234.8957 217.60399 237.68444 217.64844 240.4375 C 185.30104 260.80932 168.9941 301.80426 181.38477 339.37891 C 192.34377 376.22494 227.31707 401.24849 265.35938 400.73242 C 292.11431 401.51966 318.13909 400.77057 343.28711 401.04688 A 16.430218 16.430218 0 0 0 343.31445 401.04688 C 343.46807 401.0483 343.61982 401.0483 343.77344 401.04688 C 374.45972 400.81839 405.91028 401.52269 437.80664 400.70117 A 16.430218 16.430218 0 0 0 437.81641 400.70117 C 438.51679 400.68268 439.21584 400.63265 439.91211 400.55469 C 461.40894 398.15409 483.72544 388.76414 499.16016 369.79297 C 522.37612 342.53674 527.09731 302.44003 508.33789 270.79492 C 501.28814 258.45707 491.27702 248.04591 479.2793 240.46094 C 476.33962 206.1593 448.2255 176.88536 412.20898 175.4668 C 403.96712 174.9172 395.90357 175.99999 388.22461 178.19727 C 370.39068 156.95433 343.87397 143.97046 315.74219 143.62695 z M 314.125 161.48633 C 341.84017 161.10106 368.45986 175.90074 383.00391 199.37109 C 391.83299 194.83906 401.85792 192.58208 411.96094 193.29297 C 442.07452 194.33051 465.84179 222.27721 463.70898 251.62305 C 476.76381 257.78148 487.68693 267.9879 494.80469 280.50391 C 509.86137 305.79857 506.00465 338.79222 487.16602 360.75977 C 474.99904 375.78435 456.82364 383.64682 438.74219 385.66602 A 8.2686394 8.2686394 0 0 1 438.03711 385.71484 C 406.65567 386.52309 375.29988 385.82504 344.27539 386.05664 A 8.2686394 8.2686394 0 0 1 344.12109 386.05664 C 318.29407 385.77287 292.15276 386.54558 265.79102 385.74219 C 235.18317 386.1574 206.36607 365.45763 197.69727 335.88086 C 186.70444 302.90919 204.11005 265.22951 235.33594 251.23828 C 234.68754 245.78074 234.38793 240.27346 234.88477 234.75391 C 237.58291 195.27654 272.10736 162.72638 311.43945 161.57031 C 312.3354 161.52606 313.23096 161.49876 314.125 161.48633 z "
       transform="translate(-7.3563764e-6,0)"
       id="path4985" />
    <path
       style="fill:#000000;fill-rule:evenodd;stroke:#000000;stroke-width:1.06250489px;stroke-linecap:butt;stroke-linejoin:miter;stroke-opacity:1"
       d="M 316.68359 172.55078 A 68.154038 68.154038 0 0 0 248.5293 240.70508 A 68.154038 68.154038 0 0 0 250.81055 258.04102 A 58.130646 58.130646 0 0 0 208.57031 313.94141 A 58.130646 58.130646 0 0 0 266.70117 372.07227 A 58.130646 58.130646 0 0 0 267.94336 372.02734 L 267.94336 372.54688 L 435.99023 372.54688 L 435.99023 372.04883 A 58.130646 58.130646 0 0 0 493.46484 313.94141 A 58.130646 58.130646 0 0 0 451.73047 258.20703 A 43.095555 43.095555 0 0 0 453.19727 247.27148 A 43.095555 43.095555 0 0 0 410.10156 204.17578 A 43.095555 43.095555 0 0 0 380.26562 216.18945 A 68.154038 68.154038 0 0 0 316.68359 172.55078 z M 280.63867 241.10742 L 422.6543 241.10742 A 9.5516444 9.5516444 0 0 1 432.20508 250.6582 L 432.20508 268.82617 A 9.5516444 9.5516444 0 0 1 422.6543 278.37695 L 280.63867 278.37695 A 9.5516444 9.5516444 0 0 1 271.08789 268.82617 L 271.08789 250.6582 A 9.5516444 9.5516444 0 0 1 280.63867 241.10742 z M 328.19922 288.29102 L 378.83203 288.29102 A 4.0593117 4.0593117 0 0 1 382.89062 292.34961 L 382.89062 301.55273 A 4.0593117 4.0593117 0 0 1 378.83203 305.61133 L 328.19922 305.61133 A 4.0593117 4.0593117 0 0 1 324.14062 301.55273 L 324.14062 292.34961 A 4.0593117 4.0593117 0 0 1 328.19922 288.29102 z M 292.71094 297.61133 A 17.5 17.5 0 0 1 310.21094 315.11133 A 17.5 17.5 0 0 1 292.71094 332.61133 A 17.5 17.5 0 0 1 275.21094 315.11133 A 17.5 17.5 0 0 1 292.71094 297.61133 z M 410.21094 297.96875 A 17.5 17.5 0 0 1 427.71094 315.46875 A 17.5 17.5 0 0 1 410.21094 332.96875 A 17.5 17.5 0 0 1 392.71094 315.46875 A 17.5 17.5 0 0 1 410.21094 297.96875 z M 327.98438 311.7207 L 378.61719 311.7207 A 4.0593116 4.0593116 0 0 1 382.67578 315.7793 L 382.67578 324.98242 A 4.0593116 4.0593116 0 0 1 378.61719 329.04102 L 327.98438 329.04102 A 4.0593116 4.0593116 0 0 1 323.92578 324.98242 L 323.92578 315.7793 A 4.0593116 4.0593116 0 0 1 327.98438 311.7207 z M 327.98438 335.33203 L 378.61719 335.33203 A 4.0593117 4.0593117 0 0 1 382.67578 339.39062 L 382.67578 348.59375 A 4.0593117 4.0593117 0 0 1 378.61719 352.65234 L 327.98438 352.65234 A 4.0593117 4.0593117 0 0 1 323.92578 348.59375 L 323.92578 339.39062 A 4.0593117 4.0593117 0 0 1 327.98438 335.33203 z "
       transform="translate(-7.3563764e-6,0)"
       id="path3348" />
    <path
       id="path5147"
       transform="translate(-7.3563764e-6,0)"
       d="M 315.74219 143.62695 C 313.86674 143.60405 311.98341 143.63579 310.0957 143.72656 C 262.15069 145.24405 221.2649 183.78437 217.86328 231.99609 C 217.60836 234.8957 217.60399 237.68444 217.64844 240.4375 C 185.30104 260.80932 168.9941 301.80426 181.38477 339.37891 C 192.34377 376.22494 227.31707 401.24849 265.35938 400.73242 C 292.11431 401.51966 318.13909 400.77057 343.28711 401.04688 A 16.430218 16.430218 0 0 0 343.31445 401.04688 C 343.46807 401.0483 343.61982 401.0483 343.77344 401.04688 C 374.45972 400.81839 405.91028 401.52269 437.80664 400.70117 A 16.430218 16.430218 0 0 0 437.81641 400.70117 C 438.51679 400.68268 439.21584 400.63265 439.91211 400.55469 C 461.40894 398.15409 483.72544 388.76414 499.16016 369.79297 C 522.37612 342.53674 527.09731 302.44003 508.33789 270.79492 C 501.28814 258.45707 491.27702 248.04591 479.2793 240.46094 C 476.33962 206.1593 448.2255 176.88536 412.20898 175.4668 C 403.96712 174.9172 395.90357 175.99999 388.22461 178.19727 C 370.39068 156.95433 343.87397 143.97046 315.74219 143.62695 z M 314.125 161.48633 C 341.84017 161.10106 368.45986 175.90074 383.00391 199.37109 C 391.83299 194.83906 401.85792 192.58208 411.96094 193.29297 C 442.07452 194.33051 465.84179 222.27721 463.70898 251.62305 C 476.76381 257.78148 487.68693 267.9879 494.80469 280.50391 C 509.86137 305.79857 506.00465 338.79222 487.16602 360.75977 C 474.99904 375.78435 456.82364 383.64682 438.74219 385.66602 A 8.2686394 8.2686394 0 0 1 438.03711 385.71484 C 406.65567 386.52309 375.29988 385.82504 344.27539 386.05664 A 8.2686394 8.2686394 0 0 1 344.12109 386.05664 C 318.29407 385.77287 292.15276 386.54558 265.79102 385.74219 C 235.18317 386.1574 206.36607 365.45763 197.69727 335.88086 C 186.70444 302.90919 204.11005 265.22951 235.33594 251.23828 C 234.68754 245.78074 234.38793 240.27346 234.88477 234.75391 C 237.58291 195.27654 272.10736 162.72638 311.43945 161.57031 C 312.3354 161.52606 313.23096 161.49876 314.125 161.48633 z "
       style="fill:#000000;fill-rule:evenodd;stroke:none;stroke-width:10;stroke-linecap:butt;stroke-linejoin:miter;stroke-miterlimit:4;stroke-dasharray:none;stroke-opacity:1" />
    <path
       id="path5149"
       transform="translate(-7.3563764e-6,0)"
       d="M 316.68359 172.55078 A 68.154038 68.154038 0 0 0 248.5293 240.70508 A 68.154038 68.154038 0 0 0 250.81055 258.04102 A 58.130646 58.130646 0 0 0 208.57031 313.94141 A 58.130646 58.130646 0 0 0 266.70117 372.07227 A 58.130646 58.130646 0 0 0 267.94336 372.02734 L 267.94336 372.54688 L 435.99023 372.54688 L 435.99023 372.04883 A 58.130646 58.130646 0 0 0 493.46484 313.94141 A 58.130646 58.130646 0 0 0 451.73047 258.20703 A 43.095555 43.095555 0 0 0 453.19727 247.27148 A 43.095555 43.095555 0 0 0 410.10156 204.17578 A 43.095555 43.095555 0 0 0 380.26562 216.18945 A 68.154038 68.154038 0 0 0 316.68359 172.55078 z M 280.63867 241.10742 L 422.6543 241.10742 A 9.5516444 9.5516444 0 0 1 432.20508 250.6582 L 432.20508 268.82617 A 9.5516444 9.5516444 0 0 1 422.6543 278.37695 L 280.63867 278.37695 A 9.5516444 9.5516444 0 0 1 271.08789 268.82617 L 271.08789 250.6582 A 9.5516444 9.5516444 0 0 1 280.63867 241.10742 z M 328.19922 288.29102 L 378.83203 288.29102 A 4.0593117 4.0593117 0 0 1 382.89062 292.34961 L 382.89062 301.55273 A 4.0593117 4.0593117 0 0 1 378.83203 305.61133 L 328.19922 305.61133 A 4.0593117 4.0593117 0 0 1 324.14062 301.55273 L 324.14062 292.34961 A 4.0593117 4.0593117 0 0 1 328.19922 288.29102 z M 292.71094 297.61133 A 17.5 17.5 0 0 1 310.21094 315.11133 A 17.5 17.5 0 0 1 292.71094 332.61133 A 17.5 17.5 0 0 1 275.21094 315.11133 A 17.5 17.5 0 0 1 292.71094 297.61133 z M 410.21094 297.96875 A 17.5 17.5 0 0 1 427.71094 315.46875 A 17.5 17.5 0 0 1 410.21094 332.96875 A 17.5 17.5 0 0 1 392.71094 315.46875 A 17.5 17.5 0 0 1 410.21094 297.96875 z M 327.98438 311.7207 L 378.61719 311.7207 A 4.0593116 4.0593116 0 0 1 382.67578 315.7793 L 382.67578 324.98242 A 4.0593116 4.0593116 0 0 1 378.61719 329.04102 L 327.98438 329.04102 A 4.0593116 4.0593116 0 0 1 323.92578 324.98242 L 323.92578 315.7793 A 4.0593116 4.0593116 0 0 1 327.98438 311.7207 z M 327.98438 335.33203 L 378.61719 335.33203 A 4.0593117 4.0593117 0 0 1 382.67578 339.39062 L 382.67578 348.59375 A 4.0593117 4.0593117 0 0 1 378.61719 352.65234 L 327.98438 352.65234 A 4.0593117 4.0593117 0 0 1 323.92578 348.59375 L 323.92578 339.39062 A 4.0593117 4.0593117 0 0 1 327.98438 335.33203 z "
       style="fill:#000000;fill-rule:evenodd;stroke:#000000;stroke-width:1.06250489px;stroke-linecap:butt;stroke-linejoin:miter;stroke-opacity:1" />
  </g>
</svg>
